<svg width="97" height="48" viewBox="0 0 97 48" fill="none" xmlns="http://www.w3.org/2000/svg">
<path fill-rule="evenodd" clip-rule="evenodd" d="M49 8C68.8823 8 85 15.1634 85 24C85 32.8366 68.8823 40 49 40C29.1177 40 13 32.8366 13 24C13 15.1634 29.1177 8 49 8ZM49 9C46.3865 9 43.911 10.54 42.0459 13.2529C40.1839 15.9614 39 19.758 39 24C39 28.242 40.1839 32.0386 42.0459 34.7471C43.911 37.46 46.3865 39 49 39C51.6135 39 54.089 37.46 55.9541 34.7471C57.8161 32.0386 59 28.242 59 24C59 19.758 57.8161 15.9614 55.9541 13.2529C54.089 10.54 51.6135 9 49 9ZM44.7539 9.23633C39.7316 9.80127 35.2677 11.3482 31.8613 13.5283C27.5099 16.3133 25 20.0395 25 24C25 27.9605 27.5099 31.6867 31.8613 34.4717C35.2677 36.6518 39.7316 38.1977 44.7539 38.7627C40.7873 36.3458 38 30.6469 38 24C38 17.3529 40.7871 11.653 44.7539 9.23633ZM53.2451 9.23633C57.2123 11.6528 60 17.3525 60 24C60 30.6473 57.2121 36.3461 53.2451 38.7627C58.2678 38.1978 62.7321 36.6519 66.1387 34.4717C70.4901 31.6867 73 27.9605 73 24C73 20.0395 70.4901 16.3133 66.1387 13.5283C62.732 11.3481 58.2679 9.80118 53.2451 9.23633ZM37.1934 9.89355C32.1399 10.6847 27.6276 11.9662 23.9502 13.6006C20.7693 15.0143 18.2572 16.6719 16.5537 18.4619C14.8551 20.2468 14 22.1163 14 24C14 25.8837 14.8551 27.7532 16.5537 29.5381C18.2572 31.3281 20.7693 32.9857 23.9502 34.3994C27.6276 36.0338 32.14 37.3144 37.1934 38.1055C29.3404 35.4076 24 30.1035 24 24C24 17.8964 29.3402 12.5914 37.1934 9.89355ZM60.8057 9.89355C68.6593 12.5913 74 17.8962 74 24C74 30.1037 68.6591 35.4077 60.8057 38.1055C65.8594 37.3144 70.3722 36.0339 74.0498 34.3994C77.2307 32.9857 79.7428 31.3281 81.4463 29.5381C83.1449 27.7532 84 25.8837 84 24C84 22.1163 83.1449 20.2468 81.4463 18.4619C79.7428 16.6719 77.2307 15.0143 74.0498 13.6006C70.3722 11.9661 65.8595 10.6846 60.8057 9.89355Z" fill="#3392F1"/>
<path fill-rule="evenodd" clip-rule="evenodd" d="M97 48H0V0H97V48ZM1 47H96V1H1V47Z" fill="#3392F1"/>
</svg>
