<svg width="97" height="48" viewBox="0 0 97 48" fill="none" xmlns="http://www.w3.org/2000/svg">
<path fill-rule="evenodd" clip-rule="evenodd" d="M56.2129 24L49.2129 31L42.2129 24L49.2129 17L56.2129 24ZM43.627 24L49.2129 29.5859L54.7988 24L49.2129 18.4141L43.627 24Z" fill="#3392F1"/>
<path fill-rule="evenodd" clip-rule="evenodd" d="M59.6172 15.8301L90.4268 24.2129L59.6162 32.5957L49 43.2129L38.2236 32.4365L8 24.2129L38.2227 15.9893L49 5.21289L59.6172 15.8301ZM49 41.7988L57.6738 33.124L49.2129 35.4268L40.166 32.9648L49 41.7988ZM38.7412 16.8848L31.4141 24.2129L38.7412 31.54L49.2129 34.3896L59.0986 31.6992L66.5859 24.2129L59.0986 16.7256L49.2129 14.0361L38.7412 16.8848ZM68 24.2129L61.041 31.1709L86.6172 24.2129L61.041 17.2539L68 24.2129ZM11.8086 24.2129L36.7988 31.0117L30 24.2129L36.7988 17.4131L11.8086 24.2129ZM40.165 15.4609L49.2129 13L57.6748 15.3018L49 6.62695L40.165 15.4609Z" fill="#3392F1"/>
<path fill-rule="evenodd" clip-rule="evenodd" d="M97 48H0V0H97V48ZM1 47H96V1H1V47Z" fill="#3392F1"/>
</svg>
