<svg width="97" height="48" viewBox="0 0 97 48" fill="none" xmlns="http://www.w3.org/2000/svg">
<path d="M97 0V48H0V0H97ZM1 47H96V1H1V47Z" fill="white"/>
<path d="M77.5 23.5V24.5H19.5V23.5H77.5Z" fill="#DBF133"/>
<path d="M77.7262 6.69238L78.2262 7.55841L19.7695 41.3084L19.2695 40.4424L77.7262 6.69238Z" fill="#DBF133"/>
<path d="M60.595 6.70738L61.4062 7.29207L36.8982 41.2966L36.0869 40.7119L60.595 6.70738Z" fill="#DBF133"/>
<path d="M48.2451 7.0044H49.2451V41.0044H48.2451V7.0044Z" fill="#DBF133"/>
<path d="M36.0871 7.30572L36.8982 6.72084L61.4058 40.7076L60.5947 41.2925L36.0871 7.30572Z" fill="#DBF133"/>
<path d="M19.2699 7.56641L19.7699 6.70039L78.2266 40.4504L77.7266 41.3164L19.2699 7.56641Z" fill="#DBF133"/>
</svg>
