<svg width="851" height="215" viewBox="0 0 851 215" fill="none" xmlns="http://www.w3.org/2000/svg">
<path d="M670.644 170.805L670.536 194.205H716.464V204H657.258V127.816H716.137V137.611H670.644V161.01H716.137V170.805H670.644Z" fill="white"/>
<path d="M648.625 125.64L649.278 125.422C651.128 128.469 652.978 135.108 652.978 142.291C652.978 147.189 651.781 153.501 647.21 153.501C633.714 153.501 634.476 129.666 623.484 129.666C620.872 129.666 614.015 131.952 613.471 141.529V175.486C613.471 189.525 621.743 202.259 633.279 202.259C638.938 202.259 651.454 194.096 651.454 173.853H652.325V204H633.388C613.362 204 598.234 190.94 598.234 171.459V140.223C598.234 133.802 600.738 123.245 612.709 123.245C627.728 123.136 631.429 138.156 641.986 138.156C646.992 138.156 650.148 130.972 648.625 125.64Z" fill="white"/>
<path d="M592.491 127.816L592.6 204H579.104V127.816H592.491Z" fill="white"/>
<path d="M568.591 160.249C568.591 161.228 568.7 163.731 568.591 166.452C567.721 189.96 545.627 209.333 530.282 209.333C514.718 209.333 507.535 197.361 505.685 181.145C485.768 174.832 478.803 150.889 487.727 139.57C495.455 129.557 506.338 140.876 510.365 149.474H510.038C506.882 142.944 498.067 142.835 492.298 150.018C483.048 161.446 491.428 178.642 511.127 181.254C508.079 180.492 505.467 179.403 505.467 178.315C505.467 148.168 533.329 122.048 557.164 122.048C564.564 122.048 575.013 127.598 575.013 140.876C575.013 163.623 544.43 181.471 519.725 182.669C519.398 194.749 521.031 208.136 530.282 208.136C545.736 208.136 551.069 186.587 552.157 182.451C553.572 176.683 554.116 172.982 554.334 171.785C560.102 168.194 563.258 165.582 568.591 160.249ZM526.364 169.391L525.602 169.173C525.384 156.984 531.261 133.802 548.457 134.781C562.497 135.543 568.374 147.08 568.482 157.31C572.074 152.304 574.251 146.862 574.251 141.094C574.251 128.904 564.673 123.354 555.64 123.354C540.403 123.354 527.778 139.461 522.119 160.357C519.18 171.459 519.725 178.206 519.725 181.58C531.805 181.145 544.648 176.791 554.769 170.044C559.667 149.474 559.776 138.808 548.566 137.502C531.696 135.434 525.819 158.29 526.364 169.391Z" fill="white"/>
<path d="M452.019 127.816V161.01H473.569V127.816H486.955L487.064 204H473.569V170.805H452.128V204H438.633V127.816H452.019Z" fill="white"/>
<path d="M430 125.64L430.653 125.422C432.503 128.469 434.353 135.108 434.353 142.291C434.353 147.189 433.156 153.501 428.585 153.501C415.089 153.501 415.851 129.666 404.859 129.666C402.247 129.666 395.39 131.952 394.846 141.529V175.486C394.846 189.525 403.118 202.259 414.654 202.259C420.313 202.259 432.829 194.096 432.829 173.853H433.7V204H414.763C394.737 204 379.609 190.94 379.609 171.459V140.223C379.609 133.802 382.113 123.245 394.084 123.245C409.103 123.136 412.804 138.156 423.361 138.156C428.367 138.156 431.523 130.972 430 125.64Z" fill="white"/>
<path d="M332.733 204L330.229 188.219H312.49L309.986 204H296.817L308.68 127.816H334.474L346.337 204H332.733ZM314.013 177.88H328.706L321.414 130.972L314.013 177.88Z" fill="white"/>
<path d="M226.833 144.032C223.241 138.699 221.391 129.557 224.983 121.612L216.058 127.598C212.358 130.646 212.249 134.128 212.249 136.631C212.249 158.942 265.578 166.017 265.578 188.545C265.578 205.306 235.54 214.992 222.044 214.992C205.501 214.992 189.176 198.667 201.583 183.539L224.656 171.35L225.418 172.22C216.711 176.356 212.902 181.906 212.902 189.416C212.902 210.095 254.042 217.495 254.042 197.143C254.042 169.173 201.583 173.962 201.583 143.923C201.583 134.128 218.344 125.313 225.418 120.633C235.54 143.053 251.429 144.468 254.477 124.769H255.239L250.994 153.065C242.07 153.065 232.057 151.651 226.833 144.032Z" fill="white"/>
<path d="M174.548 207.592L155.502 195.838L167.582 180.927V138.7C166.167 138.373 164.644 138.155 163.12 138.155C159.202 138.155 155.937 141.529 152.999 145.556L151.91 144.685L173.677 122.266L192.723 134.02L184.778 143.815V168.738L171.391 183.648L184.778 191.702C189.131 191.702 192.832 187.566 195.226 184.301L196.315 185.172L174.548 207.592Z" fill="white"/>
<path d="M806.857 7.81592L836.351 80.7349V7.81592H850.39L849.52 83.9999H824.488L795.647 12.8223L794.885 83.9999H781.716V7.81592H806.857Z" fill="white"/>
<path d="M749.822 5.7484L750.475 5.53074C752.325 8.46926 754.175 15.1081 754.175 22.4C754.175 27.1887 753.087 33.5011 748.407 33.5011C734.912 33.5011 736.435 10.1018 725.334 10.1018C722.722 10.1018 715.321 12.0608 714.668 21.5294V55.4856C714.668 69.5253 722.94 82.5854 734.476 82.5854C753.413 82.5854 765.276 78.3408 767.671 52.8736H760.596C760.596 41.0107 759.835 38.5075 754.284 38.5075C722.505 38.5075 721.634 38.7252 721.198 47.4319V57.5535C720.654 57.5535 721.198 57.5535 720.328 57.5535V37.3103H754.175C766.147 37.3103 776.922 40.2489 776.922 52.8736H768.868V84.0002H734.585C714.56 84.0002 699.432 70.9401 699.432 51.4588V20.3322C699.432 13.911 701.935 3.24521 713.907 3.24521C728.926 3.13638 732.626 18.2643 743.183 18.2643C748.189 18.2643 753.958 11.1901 749.822 5.7484Z" fill="white"/>
<path d="M693.035 7.81592L693.144 83.9999H679.648V7.81592H693.035Z" fill="white"/>
<path d="M635.492 24.0322C631.901 18.6993 630.05 9.55722 633.642 1.61232L624.718 7.5982C621.017 10.6456 620.908 14.1283 620.908 16.6314C620.908 38.9425 674.237 46.0167 674.237 68.5454C674.237 85.3058 644.199 94.9921 630.703 94.9921C614.161 94.9921 597.835 78.667 610.243 63.539L633.315 51.3496L634.077 52.2202C625.371 56.3559 621.561 61.9065 621.561 69.416C621.561 90.0945 662.701 97.4953 662.701 77.1433C662.701 49.1729 610.243 53.9616 610.243 23.9233C610.243 14.1283 627.003 5.31268 634.077 0.632812C644.199 23.0527 660.089 24.4675 663.136 4.76851H663.898L659.653 33.0654C650.729 33.0654 640.716 31.6506 635.492 24.0322Z" fill="white"/>
<path d="M556.602 50.8054L556.494 74.2048H602.422V83.9999H543.216V7.81592H602.095V17.611H556.602V41.0104H602.095V50.8054H556.602Z" fill="white"/>
<path d="M480.75 3.13596L481.403 3.35363C479.879 8.68651 483.035 15.9784 488.15 15.9784C498.816 15.9784 507.414 2.15645 522.651 2.26529C534.731 2.26529 537.343 12.931 537.343 18.0463L537.452 68.6542C537.452 81.3878 526.46 84.4351 514.379 83.9998H498.816V63.4301C499.796 63.4301 500.775 63.4301 501.428 63.4301C505.564 63.7566 510.57 82.9115 514.488 82.9115C520.148 82.9115 520.909 80.0818 520.909 68.2188L520.692 19.2434C520.692 11.625 516.121 8.25117 511.55 8.25117C496.313 8.25117 490.98 31.4329 482.817 31.4329C478.138 31.4329 476.94 25.0116 476.94 20.2229C476.94 12.8222 478.791 6.07449 480.75 3.13596ZM487.715 52.1114L502.625 19.1346H516.991C499.143 53.635 492.286 84.1086 472.805 84.1086L472.914 66.151C479.008 66.5863 484.232 59.7298 487.715 52.1114Z" fill="white"/>
<path d="M380.634 46.3432C380.634 62.4507 390.865 73.3341 408.605 73.3341C415.897 73.3341 426.236 71.4839 427.433 52.1115V50.8054H391.518V41.0104H439.078V83.9999H427.433V68.2189C424.93 80.1907 416.223 84.8706 404.904 84.8706C384.226 84.8706 369.533 69.4161 369.533 46.3432C369.533 23.2704 384.226 7.81592 406.537 7.81592H438.752L438.643 19.57L406.537 19.3523C390.865 19.3523 380.634 30.2358 380.634 46.3432Z" fill="white"/>
<path d="M276.684 3.13594L277.337 3.3536C275.813 8.90415 279.078 16.5226 284.302 16.5226C295.403 16.5226 302.913 2.15643 320.217 2.26526C332.733 2.3741 343.943 13.3664 335.345 30.3445C329.033 42.7516 308.355 66.0421 308.355 78.8846C308.355 83.2379 310.749 88.3531 316.082 88.3531C337.087 88.3531 334.366 44.6018 345.249 17.2844C349.712 6.07447 365.819 3.24477 375.179 3.24477H391.177L390.96 4.22428C384.865 4.22428 380.294 3.89778 374.526 6.94514C358.527 15.543 349.712 61.3623 339.59 75.0754C335.89 80.1906 327.727 89.6591 315.973 89.6591C308.79 89.6591 293.88 83.7821 293.88 69.9602C293.88 49.3905 327.074 42.6428 334.801 27.8413C336.434 24.6851 336.869 21.2024 336.434 18.5904C335.454 12.931 321.741 10.4278 314.014 9.55716C296.165 45.0371 283.758 88.462 263.95 88.462L268.086 60.9269C284.738 61.6888 303.022 28.2766 312.055 9.44832C310.64 9.33949 309.552 9.23066 309.008 9.23066C292.465 9.23066 287.241 32.5212 278.86 32.5212C273.963 32.5212 272.766 25.8823 272.766 20.8759C272.766 13.2575 274.725 6.1833 276.684 3.13594Z" fill="white"/>
<path d="M259.186 7.81592L259.295 83.9999H245.8V7.81592H259.186Z" fill="white"/>
<path d="M152.242 26.8619L151.371 26.2089L168.676 7.92475L231.038 7.81592C234.629 9.3396 237.35 13.1488 237.35 15.9785C237.35 21.8555 232.67 25.7736 227.664 30.0181C214.821 39.1602 202.197 45.3637 198.823 45.3637L189.898 45.4726C191.64 59.621 215.474 81.279 227.664 73.0076C232.67 69.6338 235.391 65.0627 237.677 61.3624L238.438 61.7977C235.5 66.6952 232.344 71.0486 228.643 74.2048C223.31 78.7758 210.033 86.5031 207.529 86.5031C198.061 86.5031 180.974 65.1716 180.974 54.9411C180.974 52.3291 192.728 38.8337 199.04 33.392C201.87 33.392 203.067 33.5008 205.788 33.392C217.978 33.392 218.848 34.5891 223.202 31.2153C229.84 26.1001 220.263 19.8965 214.604 20.223L179.777 20.4407L176.076 23.7057C176.294 38.616 185.436 81.279 163.669 83.9999H145.059L145.276 83.0204L154.745 82.8027C167.805 82.8027 165.193 41.228 164.431 32.5213L178.362 20.4407L166.825 20.5495C157.03 20.6584 156.377 22.0732 152.242 26.8619Z" fill="white"/>
<path d="M76.7119 46.3432C76.7119 23.2704 91.4045 7.81592 113.716 7.81592C135.809 7.81592 150.502 23.2704 150.502 46.3432C150.502 69.4161 135.809 84.8706 113.716 84.8706C91.4045 84.8706 76.7119 69.4161 76.7119 46.3432ZM87.813 46.3432C87.813 62.4507 98.0434 73.3341 113.716 73.3341C129.17 73.3341 139.4 62.4507 139.4 46.3432C139.4 30.2358 129.17 19.3523 113.716 19.3523C98.0434 19.3523 87.813 30.2358 87.813 46.3432Z" fill="white"/>
<path d="M13.6252 3.35365L14.387 3.57132C12.7545 9.12187 16.0196 16.8491 21.4613 16.8491C32.6712 16.8491 41.7044 2.26531 57.7031 2.37414C70.4367 2.37414 73.1575 13.6929 73.1575 20.5495C73.1575 40.4661 49.867 44.3842 43.99 44.6018L44.0988 45.146C50.52 45.146 74.3547 40.4661 74.3547 64.7362C74.3547 95.2097 31.9094 94.0126 25.4881 78.4493C19.3934 63.7567 48.0168 42.7516 55.7441 52.6556C59.0091 56.6824 52.8055 67.8924 46.7108 73.9871L46.2755 73.6606C48.4522 71.0485 48.561 70.1779 48.1257 68.3277C46.4931 62.1241 21.4613 70.3955 26.6853 77.9051C31.5829 84.8705 48.561 79.2111 55.7441 68.5454C61.0769 60.7093 62.3829 45.9078 50.52 46.2343C44.643 46.3432 39.4189 49.717 39.7454 45.146C40.1808 38.5071 52.9144 50.5877 56.6147 30.2357C59.7709 12.3869 48.9963 9.01303 45.1871 9.01303C29.0797 9.01303 24.3998 33.0654 15.8019 33.0654C10.9044 33.0654 9.81601 26.4265 9.81601 21.3113C9.81601 13.5841 11.6662 6.50985 13.6252 3.35365ZM36.4804 21.0936L47.1461 20.1141C28.5355 56.3559 21.3524 88.462 0.891602 88.462L4.91847 60.3828C22.2231 61.3623 27.4472 39.8131 36.4804 21.0936Z" fill="white"/>
<path d="M88.8616 133.043C92.3856 150.414 106.067 164.097 123.438 167.621C106.068 171.146 92.3862 184.828 88.8616 202.198C85.3369 184.827 71.6543 171.145 54.2832 167.621C71.6548 164.097 85.3375 150.415 88.8616 133.043Z" fill="#DBF133"/>
</svg>
