<svg width="112" height="70" viewBox="0 0 112 70" fill="none" xmlns="http://www.w3.org/2000/svg">
<path d="M87.1416 1.57031C96.4973 -0.251747 104.09 1.26449 107.958 6.27344C111.827 11.2836 111.396 19.047 107.307 27.6904C103.23 36.3049 95.5783 45.6451 85.3018 53.6436C75.0249 61.6422 64.108 66.7542 54.7832 68.5703C45.4275 70.3924 37.8345 68.8761 33.9668 63.8672C30.0982 58.8571 30.5284 51.0936 34.6182 42.4502C38.6944 33.8357 46.3465 24.4956 56.623 16.4971C66.8999 8.49841 77.8168 3.3864 87.1416 1.57031Z" stroke="#DBF133"/>
<path d="M72.1574 34.2637C72.1574 42.3174 77.2523 47.7591 86.0871 47.7591C89.7186 47.7591 94.8677 46.834 95.464 37.1478V36.4948H77.5776V31.5972H101.263V53.092H95.464V45.2015C94.2173 51.1874 89.8812 53.5273 84.2443 53.5273C73.9461 53.5273 66.6289 45.8001 66.6289 34.2637C66.6289 22.7272 73.9461 15 85.0573 15H101.101L101.047 20.877L85.0573 20.7682C77.2523 20.7682 72.1574 26.2099 72.1574 34.2637Z" fill="white"/>
<path d="M46.4968 35.1887L46.4426 53.092H39.8301V15H50.7787C57.4997 15 63.6786 17.0678 63.6786 24.7407C63.6786 30.4545 60.2097 33.8283 54.7354 34.8622L63.6244 53.092H56.8493L48.1229 35.1887H46.4968ZM46.4968 30.0191H50.7787C54.4102 30.0191 57.0119 29.2029 57.0119 25.0672C57.0119 20.9859 54.4102 20.1152 50.7787 20.1696H46.4968V30.0191Z" fill="white"/>
<path d="M23.6859 15H36.2606L35.827 53.092H29.3771V21.9654L24.5532 53.092H11.7075L6.77515 21.2036L6.39575 53.092H0V15H12.3579L18.049 51.5139L23.6859 15Z" fill="white"/>
</svg>
